name analog
datacolumns 19
datarows 23
range 0.259 0.27
endheader
time	ground_force_vx	ground_force_vy	ground_force_vz	ground_force_px	ground_force_py	ground_force_pz	l_ground_force_vx	l_ground_force_vy	l_ground_force_vz	l_ground_force_px	l_ground_force_py	l_ground_force_pz	ground_torque_x	ground_torque_y	ground_torque_z	l_ground_torque_x	l_ground_torque_y	l_ground_torque_z
0.259	-0.0	-0.0	-0.0	-0.0	-0.0	-0.0	5.641026973724365	3.01503849029541	-638.4955444335938	-0.0	-0.0	-0.0	-0.0	-0.0	-0.0	190559.21875	-23749.458984375	755.7210693359375
0.2595	-0.0	-0.0	-0.0	-0.0	-0.0	-0.0	5.524068355560303	3.470785617828369	-638.3057250976562	-0.0	-0.0	-0.0	-0.0	-0.0	-0.0	190626.984375	-23516.65234375	733.5855712890625
0.26	-0.0	-0.0	-0.0	-0.0	-0.0	-0.0	5.476321220397949	3.559295892715454	-639.98388671875	-0.0	-0.0	-0.0	-0.0	-0.0	-0.0	190726.6875	-23625.71484375	737.5234985351562
0.2605	-0.0	-0.0	-0.0	-0.0	-0.0	-0.0	5.095003128051758	3.482865333557129	-638.5521240234375	-0.0	-0.0	-0.0	-0.0	-0.0	-0.0	190956.46875	-23257.4140625	681.7587280273438
0.261	-0.0	-0.0	-0.0	-0.0	-0.0	-0.0	4.751816749572754	3.52133846282959	-639.3876953125	-0.0	-0.0	-0.0	-0.0	-0.0	-0.0	191161.5625	-23076.421875	593.6826171875
0.2615	-0.0	-0.0	-0.0	-0.0	-0.0	-0.0	4.296752452850342	3.8092236518859854	-639.4486694335938	-0.0	-0.0	-0.0	-0.0	-0.0	-0.0	191091.234375	-23243.25	432.2389831542969
0.262	-0.0	-0.0	-0.0	-0.0	-0.0	-0.0	4.280691623687744	4.074035167694092	-639.9505004882812	-0.0	-0.0	-0.0	-0.0	-0.0	-0.0	191840.453125	-23145.703125	443.6434326171875
0.2625	-0.0	-0.0	-0.0	-0.0	-0.0	-0.0	3.991985321044922	4.504405975341797	-641.2388916015625	-0.0	-0.0	-0.0	-0.0	-0.0	-0.0	192333.515625	-23117.96484375	219.09671020507807
0.263	-0.0	-0.0	-0.0	-0.0	-0.0	-0.0	3.7978029251098633	4.681049346923828	-643.5299072265625	-0.0	-0.0	-0.0	-0.0	-0.0	-0.0	192816.203125	-23284.408203125	228.2157745361328
0.2635	-0.0	-0.0	-0.0	-0.0	-0.0	-0.0	3.6542892456054688	5.100986480712891	-644.0315551757812	-0.0	-0.0	-0.0	-0.0	-0.0	-0.0	193419.703125	-23182.859375	194.89122009277344
0.264	-0.0	-0.0	-0.0	-0.0	-0.0	-0.0	3.637142181396485	5.514756679534912	-646.3641967773438	-0.0	-0.0	-0.0	-0.0	-0.0	-0.0	194166.15625	-23503.837890625	234.1141357421875
0.2645	-0.0	-0.0	-0.0	-0.0	-0.0	-0.0	4.187212944030762	5.956427097320557	-647.4524536132812	-0.0	-0.0	-0.0	-0.0	-0.0	-0.0	194823.609375	-23363.88671875	248.9054718017578
0.265	-0.0	-0.0	-0.0	-0.0	-0.0	-0.0	4.130284309387207	5.995455265045166	-650.2026977539062	-0.0	-0.0	-0.0	-0.0	-0.0	-0.0	195050.453125	-23559.69140625	327.2652893066406
0.2655	-0.0	-0.0	-0.0	-0.0	-0.0	-0.0	4.771878719329834	6.016170024871826	-650.2017211914062	-0.0	-0.0	-0.0	-0.0	-0.0	-0.0	195445.375	-23602.896484375	591.2869873046875
0.266	-0.0	-0.0	-0.0	-0.0	-0.0	-0.0	5.233936309814453	5.898746013641357	-651.01318359375	-0.0	-0.0	-0.0	-0.0	-0.0	-0.0	195679.65625	-23770.623046875	592.1847534179688
0.2665	-0.0	-0.0	-0.0	-0.0	-0.0	-0.0	5.42140531539917	5.750059127807617	-651.0921020507812	-0.0	-0.0	-0.0	-0.0	-0.0	-0.0	195805.65625	-23605.529296875	578.7254638671875
0.267	-0.0	-0.0	-0.0	-0.0	-0.0	-0.0	5.391514778137207	5.62295389175415	-650.3924560546875	-0.0	-0.0	-0.0	-0.0	-0.0	-0.0	195833.65625	-23380.783203125	565.561767578125
0.2675	-0.0	-0.0	-0.0	-0.0	-0.0	-0.0	5.657956123352051	5.279852867126465	-650.3925170898438	-0.0	-0.0	-0.0	-0.0	-0.0	-0.0	195684.03125	-23417.65234375	760.1651000976562
0.268	-0.0	-0.0	-0.0	-0.0	-0.0	-0.0	5.3226470947265625	4.681049346923828	-649.266357421875	-0.0	-0.0	-0.0	-0.0	-0.0	-0.0	195657.453125	-23216.865234375	789.1175537109375
0.2685	-0.0	-0.0	-0.0	-0.0	-0.0	-0.0	5.835905075073242	4.248902320861816	-648.879638671875	-0.0	-0.0	-0.0	-0.0	-0.0	-0.0	195328.453125	-23183.390625	957.6568603515624
0.269	-0.0	-0.0	-0.0	-0.0	-0.0	-0.0	6.121044158935547	3.718818664550781	-649.3851928710938	-0.0	-0.0	-0.0	-0.0	-0.0	-0.0	195079.78125	-23048.7109375	944.4043579101562
0.2695	-0.0	-0.0	-0.0	-0.0	-0.0	-0.0	5.88543176651001	3.1491944789886475	-646.5198974609375	-0.0	-0.0	-0.0	-0.0	-0.0	-0.0	194897.390625	-22560.51171875	961.3562622070312
0.27	-0.0	-0.0	-0.0	-0.0	-0.0	-0.0	5.273756980895996	2.7379722595214844	-647.4124145507812	-0.0	-0.0	-0.0	-0.0	-0.0	-0.0	194488.390625	-22489.912109375	901.6178588867188
